<?xml version="1.0" encoding="UTF-8" standalone="no"?>
<!DOCTYPE svg PUBLIC "-//W3C//DTD SVG 1.1//EN" "http://www.w3.org/Graphics/SVG/1.1/DTD/svg11.dtd">
<svg xmlns="http://www.w3.org/2000/svg" version="1.1" viewBox="0.00 0.00 1773.00 1773.00">
<g stroke-width="2.00" fill="none" stroke-linecap="butt">
<path stroke="#98999c" vector-effect="non-scaling-stroke" d="
  M 1128.31 627.09
  C 1115.13 619.32 1103.08 613.57 1088.25 606.53
  Q 1065.72 595.84 1034.25 584.99
  Q 1006.29 575.36 984.77 570.66
  Q 960.30 565.33 933.92 562.23
  Q 890.75 557.17 843.50 562.00
  Q 825.03 563.89 813.94 565.90
  C 751.83 577.17 692.32 600.60 637.03 631.65
  C 631.34 634.85 624.53 639.25 617.33 643.51
  Q 609.82 647.94 602.67 652.58
  Q 545.58 689.62 495.29 737.51
  C 482.78 749.42 469.98 763.16 459.10 775.53
  A 1.34 1.33 45.2 0 0 459.10 777.30
  Q 502.32 826.03 554.69 865.88
  Q 567.37 875.52 585.06 887.95
  Q 627.77 917.95 674.66 940.51
  C 693.07 949.38 713.54 957.56 731.89 964.35
  Q 784.53 983.83 840.48 990.55
  C 894.40 997.03 949.62 991.45 1002.06 977.39
  Q 1026.91 970.72 1054.30 960.00
  Q 1083.48 948.57 1104.82 938.06
  C 1149.92 915.83 1192.04 888.08 1231.37 856.87
  Q 1262.05 832.53 1286.25 808.25
  Q 1302.54 791.91 1315.17 777.99
  A 2.27 2.26 -40.7 0 0 1315.38 775.21
  Q 1314.83 774.39 1314.00 773.49
  Q 1295.83 753.78 1275.88 734.38
  Q 1252.26 711.41 1216.96 684.06
  Q 1206.40 675.88 1193.50 667.31
  A 0.72 0.71 31.9 0 0 1192.49 667.54
  Q 1183.75 682.12 1168.49 689.96
  A 1.34 1.33 -40.9 0 0 1168.32 692.24
  Q 1178.84 699.72 1195.50 712.25
  C 1220.06 730.71 1240.10 748.89 1264.40 772.18
  Q 1266.37 774.07 1267.46 775.71
  A 1.69 1.68 50.7 0 1 1267.25 777.85
  Q 1235.97 809.10 1201.06 836.05
  Q 1190.07 844.53 1179.83 851.41
  A 5.03 4.92 85.3 0 0 1178.07 853.53
  Q 1168.77 874.75 1151.42 891.96
  Q 1140.45 902.84 1125.63 910.40
  C 1100.49 923.21 1073.20 928.43 1045.47 926.86
  A 7.11 7.07 36.1 0 0 1042.53 927.31
  Q 1027.75 932.99 1007.43 939.39
  C 979.99 948.03 953.38 952.90 924.75 956.05
  C 875.95 961.43 825.87 955.49 778.44 942.86
  C 765.37 939.38 749.91 933.90 734.51 928.83
  A 6.30 6.21 54.2 0 0 732.73 928.53
  Q 729.96 928.47 723.50 928.46
  C 698.19 928.43 672.48 922.05 650.03 909.24
  Q 611.80 887.43 589.99 849.21
  A 8.01 7.95 -86.9 0 0 587.79 846.74
  Q 544.70 814.93 506.69 777.37
  A 1.24 1.24 0.0 0 1 506.69 775.59
  C 532.19 750.43 559.11 726.93 587.77 705.52
  Q 591.10 703.03 592.23 700.96
  Q 599.03 688.44 613.16 672.93
  Q 624.17 660.84 638.22 651.48
  Q 679.28 624.13 729.11 625.10
  A 10.47 10.34 35.7 0 0 732.74 624.53
  Q 751.79 617.95 767.59 613.03
  Q 853.77 586.18 943.24 598.79
  Q 967.68 602.23 994.37 609.63
  Q 1030.13 619.54 1061.36 632.74
  A 1.93 1.90 47.8 0 0 1062.66 632.81
  C 1083.79 626.38 1100.12 627.68 1128.15 627.68
  A 0.32 0.32 0.0 0 0 1128.31 627.09"
/>
<path stroke="#98999c" vector-effect="non-scaling-stroke" d="
  M 863.21 799.18
  C 869.68 785.88 881.05 777.16 896.15 780.56
  C 908.90 783.43 914.10 796.71 918.42 808.35
  Q 919.26 810.62 924.53 825.48
  C 936.63 859.63 959.98 892.55 995.01 905.95
  Q 1011.11 912.11 1028.84 914.34
  Q 1066.34 919.08 1101.36 907.92
  Q 1136.91 896.60 1156.67 868.17
  Q 1158.68 865.28 1160.07 862.74
  C 1162.78 857.78 1165.38 853.47 1167.38 848.53
  Q 1173.90 832.36 1177.67 814.21
  Q 1182.86 789.26 1183.07 788.32
  Q 1184.82 780.76 1187.11 777.27
  C 1190.89 771.51 1197.38 767.91 1203.44 764.33
  A 1.62 1.61 -12.9 0 0 1204.21 763.11
  Q 1205.47 748.88 1204.52 733.51
  A 2.80 2.78 14.0 0 0 1203.18 731.30
  C 1200.83 729.87 1197.08 728.46 1194.68 727.97
  Q 1160.05 720.89 1140.27 718.15
  Q 1101.01 712.72 1059.86 713.43
  A 0.95 0.93 -74.6 0 0 1059.08 713.88
  Q 1054.53 721.32 1051.60 730.07
  A 0.45 0.45 0.0 0 0 1052.04 730.67
  Q 1082.98 729.26 1113.72 734.09
  C 1134.02 737.28 1157.11 745.05 1160.23 769.01
  C 1163.05 790.57 1159.92 813.60 1153.06 834.39
  C 1146.92 853.02 1135.79 870.81 1119.58 881.10
  C 1102.65 891.85 1080.88 897.55 1060.98 898.50
  C 1034.38 899.77 1007.28 896.35 985.69 881.31
  C 962.64 865.26 947.40 837.86 941.29 809.76
  C 936.55 787.90 938.91 767.89 958.23 754.49
  Q 968.42 747.42 980.16 744.21
  A 1.12 1.11 -5.6 0 0 980.98 743.22
  L 982.37 725.64
  A 0.40 0.39 83.9 0 0 981.87 725.23
  C 974.53 727.36 966.96 729.47 960.88 731.53
  Q 945.40 736.77 931.41 741.13
  C 908.63 748.23 886.88 749.72 863.63 744.24"
/>
<path stroke="#c9878e" vector-effect="non-scaling-stroke" d="
  M 863.63 744.24
  Q 863.88 732.08 864.30 728.27
  C 867.47 699.97 887.30 677.41 915.73 673.07
  Q 921.90 672.13 941.31 672.33
  Q 943.54 672.35 966.92 672.39
  C 976.28 672.41 983.12 671.46 990.36 666.90
  Q 1010.44 654.30 1010.55 629.32
  A 0.52 0.52 0.0 0 0 1010.03 628.80
  Q 947.04 628.89 937.38 628.79
  Q 915.99 628.57 906.33 630.35
  C 869.24 637.17 839.03 660.31 826.30 696.02
  Q 819.56 714.92 819.56 735.25
  Q 819.55 756.40 819.65 767.02
  Q 819.80 784.07 817.93 794.00
  Q 810.48 833.54 777.10 856.60
  C 756.10 871.11 729.27 876.24 704.01 870.54
  C 669.20 862.69 641.58 837.29 631.87 803.26
  C 616.98 751.10 647.77 697.95 699.31 684.48
  C 741.80 673.37 784.45 691.67 806.86 729.00
  A 0.53 0.53 0.0 0 0 807.84 728.76
  Q 809.62 701.87 820.97 678.12
  A 1.97 1.97 0.0 0 0 820.55 675.85
  Q 800.72 657.00 776.72 647.25
  C 748.13 635.63 714.50 634.26 684.83 642.58
  Q 651.95 651.80 627.43 675.15
  C 598.07 703.10 582.22 740.83 583.72 781.25
  C 584.72 808.39 592.84 835.82 608.80 857.21
  Q 616.52 867.55 621.41 872.59
  Q 650.13 902.22 690.13 912.60
  C 735.30 924.33 782.71 911.93 817.57 881.26
  Q 845.69 856.52 857.29 821.01
  Q 860.90 809.96 863.21 799.18"
/>
<path stroke="#61212b" vector-effect="non-scaling-stroke" d="
  M 863.63 744.24
  Q 864.24 771.49 863.21 799.18"
/>
<path stroke="#c9878e" vector-effect="non-scaling-stroke" d="
  M 1186.05 640.09
  A 0.41 0.41 0.0 0 0 1185.64 639.71
  Q 1177.58 639.69 1096.54 639.84
  Q 1074.78 639.88 1053.31 649.35
  C 1029.07 660.05 1009.44 680.81 1000.22 705.46
  Q 996.36 715.77 994.04 729.92
  Q 992.73 737.90 992.83 755.15
  Q 992.98 781.68 992.82 870.65
  A 2.95 2.94 -73.9 0 0 994.21 873.17
  C 1007.08 881.19 1021.89 885.07 1036.79 886.70
  A 0.57 0.56 2.8 0 0 1037.41 886.14
  L 1037.41 799.98
  A 0.65 0.65 0.0 0 1 1038.06 799.33
  Q 1062.97 799.26 1092.30 799.37
  Q 1100.60 799.40 1105.09 798.08
  C 1123.34 792.72 1134.65 775.20 1134.12 756.41
  A 0.63 0.63 0.0 0 0 1133.49 755.80
  L 1038.05 755.80
  A 0.65 0.64 89.5 0 1 1037.41 755.16
  C 1037.28 746.54 1037.03 737.87 1039.38 729.44
  Q 1045.68 706.83 1064.08 693.78
  C 1071.29 688.66 1078.31 686.21 1086.99 684.24
  Q 1092.33 683.04 1105.61 683.06
  Q 1136.81 683.10 1141.00 683.17
  Q 1151.03 683.32 1156.36 681.81
  C 1175.26 676.44 1187.57 659.74 1186.05 640.09"
/>
<path stroke="#98999c" vector-effect="non-scaling-stroke" d="
  M 676.98 819.67
  C 705.80 851.39 756.99 846.28 778.70 809.19
  Q 794.18 782.75 782.03 752.16
  A 0.30 0.29 -48.7 0 0 781.47 752.20
  C 781.03 753.92 780.60 755.97 779.97 757.33
  C 772.20 774.18 750.90 777.50 738.45 763.80
  C 726.00 750.10 731.33 729.21 748.85 723.09
  C 750.26 722.59 752.34 722.36 754.10 722.08
  A 0.30 0.29 -35.8 0 0 754.19 721.53
  Q 724.90 706.52 697.10 719.41
  C 658.11 737.48 648.15 787.95 676.98 819.67"
/>
<path stroke="#c9878e" vector-effect="non-scaling-stroke" d="
  M 863.61 838.62
  Q 847.76 871.94 820.04 894.98
  A 1.87 1.84 -20.0 0 0 819.36 896.41
  L 819.36 923.79
  A 0.47 0.47 0.0 0 0 819.83 924.26
  L 863.41 924.26
  A 0.45 0.45 0.0 0 0 863.86 923.81
  L 863.86 838.68
  A 0.13 0.13 0.0 0 0 863.61 838.62"
/>
<path stroke="#c9878e" vector-effect="non-scaling-stroke" d="
  M 574.78 1141.81
  A 0.35 0.35 0.0 0 0 574.43 1141.46
  L 552.90 1141.46
  A 0.44 0.44 0.0 0 0 552.46 1141.90
  Q 552.43 1158.52 552.44 1160.75
  C 552.50 1167.41 551.46 1174.76 544.22 1176.97
  C 539.51 1178.41 533.59 1177.55 530.50 1173.57
  C 528.18 1170.56 527.98 1166.82 527.96 1162.50
  Q 527.79 1109.95 527.97 1082.52
  C 528.02 1074.11 532.38 1067.89 541.49 1068.53
  C 551.27 1069.22 552.56 1077.18 552.58 1085.79
  Q 552.59 1096.79 552.57 1098.55
  A 0.60 0.59 -89.5 0 0 553.16 1099.16
  L 574.26 1099.16
  A 0.35 0.34 -88.2 0 0 574.60 1098.83
  Q 575.18 1088.16 574.47 1078.53
  Q 573.54 1065.95 565.81 1057.23
  C 560.37 1051.10 554.05 1048.19 546.00 1047.23
  C 537.40 1046.21 527.37 1047.11 520.03 1051.63
  C 509.53 1058.10 504.67 1069.38 504.61 1081.48
  Q 504.54 1095.16 504.56 1153.77
  Q 504.56 1165.60 504.76 1167.73
  C 506.41 1185.17 515.43 1197.10 534.24 1198.82
  C 559.08 1201.08 574.10 1189.05 574.78 1164.00
  Q 574.93 1158.43 574.78 1141.81"
/>
<path stroke="#c9878e" vector-effect="non-scaling-stroke" d="
  M 219.88 1123.19
  Q 219.92 1158.87 219.92 1162.01
  Q 219.92 1172.72 224.01 1181.28
  C 230.18 1194.21 241.63 1199.23 255.85 1199.22
  C 270.06 1199.20 281.50 1194.15 287.65 1181.21
  Q 291.72 1172.64 291.69 1161.93
  Q 291.69 1158.79 291.65 1123.11
  Q 291.61 1087.43 291.61 1084.29
  Q 291.61 1073.58 287.52 1065.03
  C 281.34 1052.09 269.89 1047.07 255.68 1047.09
  C 241.47 1047.10 230.03 1052.15 223.88 1065.10
  Q 219.81 1073.66 219.83 1084.37
  Q 219.84 1087.51 219.88 1123.19"
/>
<path stroke="#8a8c8f" vector-effect="non-scaling-stroke" d="
  M 1466.33 1123.13
  Q 1466.37 1087.44 1466.37 1084.30
  Q 1466.39 1073.59 1462.32 1065.03
  C 1456.18 1052.08 1444.73 1047.03 1430.52 1047.01
  C 1416.30 1047.00 1404.85 1052.02 1398.67 1064.96
  Q 1394.58 1073.51 1394.58 1084.22
  Q 1394.58 1087.36 1394.54 1123.05
  Q 1394.51 1158.74 1394.50 1161.88
  Q 1394.48 1172.59 1398.55 1181.16
  C 1404.70 1194.10 1416.14 1199.15 1430.35 1199.17
  C 1444.57 1199.18 1456.02 1194.16 1462.20 1181.22
  Q 1466.29 1172.67 1466.29 1161.96
  Q 1466.29 1158.82 1466.33 1123.13"
/>
<path stroke="#c9878e" vector-effect="non-scaling-stroke" d="
  M 307.15 1197.45
  L 329.57 1197.45
  A 0.52 0.51 -0.0 0 0 330.09 1196.94
  L 330.09 1139.64
  A 0.67 0.66 -89.2 0 1 330.77 1138.97
  Q 338.14 1139.09 344.79 1138.82
  C 365.97 1137.98 376.70 1123.57 376.69 1103.25
  C 376.68 1087.17 379.14 1063.53 362.95 1053.95
  Q 353.71 1048.48 341.50 1048.57
  Q 326.80 1048.67 307.03 1048.55
  A 0.40 0.39 -89.3 0 0 306.63 1048.95
  L 306.63 1196.93
  A 0.52 0.52 0.0 0 0 307.15 1197.45"
/>
<path stroke="#c9878e" vector-effect="non-scaling-stroke" d="
  M 418.38 1197.53
  Q 428.69 1197.54 429.86 1197.48
  A 0.46 0.45 88.8 0 0 430.30 1197.02
  L 430.33 1070.47
  A 0.53 0.53 0.0 0 1 430.86 1069.94
  L 454.36 1069.95
  A 0.55 0.55 0.0 0 0 454.91 1069.40
  L 454.92 1049.10
  A 0.44 0.44 0.0 0 0 454.49 1048.66
  Q 451.80 1048.64 418.55 1048.60
  Q 385.30 1048.56 382.62 1048.58
  A 0.44 0.44 0.0 0 0 382.18 1049.02
  L 382.14 1069.32
  A 0.55 0.55 0.0 0 0 382.69 1069.87
  L 406.19 1069.91
  A 0.53 0.53 0.0 0 1 406.72 1070.45
  L 406.47 1197.00
  A 0.46 0.45 -88.7 0 0 406.91 1197.46
  Q 408.08 1197.52 418.38 1197.53"
/>
<path stroke="#c9878e" vector-effect="non-scaling-stroke" d="
  M 489.13 1049.07
  A 0.48 0.48 0.0 0 0 488.65 1048.59
  L 465.93 1048.59
  A 0.48 0.48 0.0 0 0 465.45 1049.07
  L 465.45 1196.91
  A 0.48 0.48 0.0 0 0 465.93 1197.39
  L 488.65 1197.39
  A 0.48 0.48 0.0 0 0 489.13 1196.91
  L 489.13 1049.07"
/>
<path stroke="#8a8c8f" vector-effect="non-scaling-stroke" d="
  M 684.64 1049.14
  A 0.52 0.52 0.0 0 0 684.12 1048.62
  L 623.08 1048.62
  A 0.52 0.52 0.0 0 0 622.56 1049.14
  L 622.56 1196.98
  A 0.52 0.52 0.0 0 0 623.08 1197.50
  L 645.59 1197.50
  A 0.52 0.52 0.0 0 0 646.11 1196.98
  L 646.11 1134.27
  A 0.52 0.52 0.0 0 1 646.63 1133.75
  L 676.26 1133.75
  A 0.52 0.52 0.0 0 0 676.78 1133.23
  L 676.78 1112.76
  A 0.52 0.52 0.0 0 0 676.26 1112.24
  L 646.64 1112.24
  A 0.52 0.52 0.0 0 1 646.12 1111.72
  L 646.12 1070.40
  A 0.52 0.52 0.0 0 1 646.64 1069.88
  L 684.12 1069.88
  A 0.52 0.52 0.0 0 0 684.64 1069.36
  L 684.64 1049.14"
/>
<path stroke="#8a8c8f" vector-effect="non-scaling-stroke" d="
  M 890.22 1094.09
  L 919.10 1197.16
  A 0.53 0.53 0.0 0 0 919.61 1197.54
  L 943.07 1197.54
  A 0.49 0.48 -90.0 0 0 943.55 1197.05
  L 943.55 1049.11
  A 0.48 0.48 0.0 0 0 943.07 1048.63
  L 922.36 1048.63
  A 0.31 0.31 0.0 0 0 922.05 1048.94
  L 922.25 1135.93
  A 0.02 0.02 0.0 0 1 922.21 1135.94
  L 897.91 1049.22
  A 0.82 0.82 0.0 0 0 897.12 1048.62
  L 868.69 1048.62
  A 0.51 0.51 0.0 0 0 868.18 1049.13
  L 868.18 1196.96
  A 0.54 0.53 90.0 0 0 868.71 1197.50
  L 889.18 1197.50
  A 0.63 0.63 0.0 0 0 889.81 1196.87
  L 889.81 1094.15
  A 0.21 0.21 0.0 0 1 890.22 1094.09"
/>
<path stroke="#8a8c8f" vector-effect="non-scaling-stroke" d="
  M 1078.00 1070.54
  Q 1055.86 1121.17 1034.08 1174.82
  A 5.68 5.65 -34.1 0 0 1033.66 1176.96
  L 1033.66 1197.07
  A 0.49 0.48 -0.0 0 0 1034.15 1197.55
  L 1102.20 1197.55
  A 0.41 0.41 0.0 0 0 1102.61 1197.14
  L 1102.61 1176.15
  A 0.38 0.38 0.0 0 0 1102.23 1175.77
  L 1058.30 1175.77
  A 0.47 0.47 0.0 0 1 1057.87 1175.12
  L 1101.96 1071.09
  A 5.98 5.92 56.7 0 0 1102.43 1068.77
  L 1102.43 1049.10
  A 0.44 0.43 90.0 0 0 1102.00 1048.66
  L 1035.95 1048.66
  A 0.48 0.48 0.0 0 0 1035.47 1049.14
  L 1035.47 1069.43
  A 0.50 0.49 0.0 0 0 1035.97 1069.92
  L 1077.60 1069.92
  A 0.44 0.44 0.0 0 1 1078.00 1070.54"
/>
<path stroke="#8a8c8f" vector-effect="non-scaling-stroke" d="
  M 1149.83 1048.92
  L 1149.85 1197.08
  A 0.42 0.41 -90.0 0 0 1150.26 1197.50
  L 1172.87 1197.49
  A 0.51 0.51 0.0 0 0 1173.37 1196.98
  L 1173.38 1134.36
  A 0.64 0.63 0.0 0 1 1174.02 1133.73
  L 1203.45 1133.78
  A 0.53 0.53 0.0 0 0 1203.98 1133.25
  L 1204.10 1112.72
  A 0.49 0.49 0.0 0 0 1203.61 1112.23
  L 1173.99 1112.29
  A 0.60 0.60 0.0 0 1 1173.39 1111.69
  L 1173.40 1070.35
  A 0.45 0.44 -90.0 0 1 1173.84 1069.90
  L 1211.44 1069.92
  A 0.45 0.45 0.0 0 0 1211.89 1069.47
  L 1211.90 1049.14
  A 0.50 0.50 0.0 0 0 1211.40 1048.64
  L 1150.08 1048.67
  A 0.25 0.25 0.0 0 0 1149.83 1048.92"
/>
<path stroke="#8a8c8f" vector-effect="non-scaling-stroke" d="
  M 1294.71 1197.19
  C 1285.68 1148.42 1278.79 1103.77 1269.45 1049.24
  A 0.73 0.73 0.0 0 0 1268.73 1048.64
  L 1237.15 1048.64
  A 0.73 0.73 0.0 0 0 1236.43 1049.25
  L 1211.67 1197.00
  A 0.45 0.45 0.0 0 0 1212.11 1197.53
  L 1233.35 1197.53
  A 0.64 0.64 0.0 0 0 1233.98 1196.98
  L 1237.85 1169.90
  A 0.64 0.63 -86.4 0 1 1238.48 1169.34
  L 1265.34 1169.34
  A 0.72 0.71 85.2 0 1 1266.04 1169.94
  L 1270.71 1197.19
  A 0.40 0.39 -4.2 0 0 1271.10 1197.52
  L 1294.43 1197.52
  A 0.28 0.28 0.0 0 0 1294.71 1197.19"
/>
<path stroke="#8a8c8f" vector-effect="non-scaling-stroke" d="
  M 1326.23 1092.67
  L 1355.48 1197.07
  A 0.58 0.58 0.0 0 0 1356.04 1197.49
  L 1379.31 1197.49
  A 0.45 0.45 0.0 0 0 1379.76 1197.04
  L 1379.76 1049.24
  A 0.58 0.57 0.0 0 0 1379.18 1048.67
  L 1359.15 1048.67
  A 0.37 0.36 -0.0 0 0 1358.78 1049.03
  L 1358.78 1135.93
  A 0.15 0.15 0.0 0 1 1358.49 1135.97
  L 1334.16 1049.13
  A 0.64 0.63 82.1 0 0 1333.55 1048.66
  L 1305.05 1048.66
  A 0.38 0.38 0.0 0 0 1304.67 1049.04
  L 1304.67 1197.03
  A 0.47 0.47 0.0 0 0 1305.14 1197.50
  L 1325.32 1197.50
  A 0.65 0.64 0.0 0 0 1325.97 1196.86
  L 1325.97 1092.70
  A 0.13 0.13 0.0 0 1 1326.23 1092.67"
/>
<path stroke="#8a8c8f" vector-effect="non-scaling-stroke" d="
  M 751.81 1122.40
  Q 762.71 1115.66 764.84 1104.60
  Q 767.71 1089.74 765.27 1073.75
  Q 762.41 1055.00 745.01 1050.29
  Q 739.04 1048.68 735.24 1048.67
  Q 713.22 1048.60 696.15 1048.67
  A 0.35 0.35 0.0 0 0 695.80 1049.02
  L 695.80 1196.95
  A 0.51 0.50 -90.0 0 0 696.30 1197.46
  L 718.83 1197.46
  A 0.48 0.47 -90.0 0 0 719.30 1196.98
  L 719.30 1135.62
  A 0.60 0.60 0.0 0 1 719.85 1135.02
  Q 723.20 1134.75 727.35 1134.86
  C 736.20 1135.09 741.71 1140.31 742.03 1149.55
  Q 742.56 1165.07 742.35 1180.00
  Q 742.23 1188.62 744.33 1196.44
  A 1.43 1.42 -7.4 0 0 745.71 1197.50
  L 768.81 1197.50
  A 0.30 0.30 0.0 0 0 769.08 1197.07
  Q 766.28 1190.84 766.26 1183.48
  Q 766.19 1155.50 766.06 1150.50
  C 765.77 1139.43 761.91 1128.87 751.82 1123.10
  A 0.41 0.41 0.0 0 1 751.81 1122.40"
/>
<path stroke="#8a8c8f" vector-effect="non-scaling-stroke" d="
  M 800.27 1048.67
  A 0.53 0.53 0.0 0 0 799.75 1049.11
  L 774.98 1196.89
  A 0.53 0.53 0.0 0 0 775.51 1197.51
  L 796.54 1197.51
  A 0.53 0.53 0.0 0 0 797.06 1197.07
  L 801.65 1169.72
  A 0.53 0.53 0.0 0 1 802.17 1169.28
  L 829.15 1169.28
  A 0.53 0.53 0.0 0 1 829.68 1169.72
  L 834.35 1197.04
  A 0.53 0.53 0.0 0 0 834.88 1197.48
  L 857.63 1197.48
  A 0.53 0.53 0.0 0 0 858.15 1196.86
  L 832.89 1049.11
  A 0.53 0.53 0.0 0 0 832.36 1048.67
  L 800.27 1048.67"
/>
<path stroke="#8a8c8f" vector-effect="non-scaling-stroke" d="
  M 990.19 1197.51
  Q 1000.49 1197.52 1001.67 1197.46
  A 0.46 0.45 88.8 0 0 1002.10 1197.00
  L 1002.10 1070.48
  A 0.53 0.53 0.0 0 1 1002.63 1069.95
  L 1026.13 1069.95
  A 0.55 0.55 0.0 0 0 1026.68 1069.40
  L 1026.68 1049.11
  A 0.44 0.44 0.0 0 0 1026.25 1048.67
  Q 1023.56 1048.65 990.32 1048.62
  Q 957.08 1048.59 954.39 1048.61
  A 0.44 0.44 0.0 0 0 953.96 1049.05
  L 953.92 1069.34
  A 0.55 0.55 0.0 0 0 954.47 1069.89
  L 977.97 1069.93
  A 0.53 0.53 0.0 0 1 978.50 1070.46
  L 978.28 1196.98
  A 0.46 0.45 -88.7 0 0 978.71 1197.44
  Q 979.89 1197.50 990.19 1197.51"
/>
<path stroke="#8a8c8f" vector-effect="non-scaling-stroke" d="
  M 1535.24 1136.45
  Q 1535.21 1136.44 1535.18 1136.41
  A 0.21 0.17 12.4 0 1 1535.10 1136.31
  L 1510.99 1049.14
  A 0.67 0.67 0.0 0 0 1510.35 1048.66
  L 1481.70 1048.66
  A 0.49 0.49 0.0 0 0 1481.21 1049.15
  L 1481.21 1196.82
  A 0.69 0.69 0.0 0 0 1481.90 1197.51
  L 1502.22 1197.51
  A 0.49 0.49 0.0 0 0 1502.71 1197.02
  L 1502.71 1092.62
  A 0.04 0.04 0.0 0 1 1502.78 1092.61
  L 1531.90 1196.94
  A 0.79 0.78 -7.7 0 0 1532.66 1197.51
  L 1556.36 1197.51
  A 0.44 0.44 0.0 0 0 1556.80 1197.07
  L 1556.80 1049.21
  A 0.54 0.54 0.0 0 0 1556.26 1048.67
  L 1535.81 1048.67
  A 0.57 0.57 0.0 0 0 1535.24 1049.24
  L 1535.42 1136.34
  A 0.13 0.12 12.4 0 1 1535.24 1136.45"
/>
<path stroke="#c9878e" vector-effect="non-scaling-stroke" d="
  M 268.02 1080.47
  A 11.96 11.96 0.0 0 0 256.06 1068.51
  L 255.40 1068.51
  A 11.96 11.96 0.0 0 0 243.44 1080.47
  L 243.44 1165.61
  A 11.96 11.96 0.0 0 0 255.40 1177.57
  L 256.06 1177.57
  A 11.96 11.96 0.0 0 0 268.02 1165.61
  L 268.02 1080.47"
/>
<path stroke="#8a8c8f" vector-effect="non-scaling-stroke" d="
  M 1442.7852 1080.0388
  A 11.63 11.63 0.0 0 0 1431.1349 1068.4291
  L 1430.0349 1068.4310
  A 11.63 11.63 0.0 0 0 1418.4252 1080.0813
  L 1418.5748 1165.8212
  A 11.63 11.63 0.0 0 0 1430.2251 1177.4309
  L 1431.3251 1177.4290
  A 11.63 11.63 0.0 0 0 1442.9348 1165.7787
  L 1442.7852 1080.0388"
/>
<path stroke="#c9878e" vector-effect="non-scaling-stroke" d="
  M 330.08 1070.44
  L 330.08 1116.98
  A 0.44 0.44 0.0 0 0 330.52 1117.42
  L 341.71 1117.42
  A 11.62 11.33 -90.0 0 0 353.04 1105.80
  L 353.04 1081.62
  A 11.62 11.33 90.0 0 0 341.71 1070.00
  L 330.52 1070.00
  A 0.44 0.44 0.0 0 0 330.08 1070.44"
/>
<path stroke="#8a8c8f" vector-effect="non-scaling-stroke" d="
  M 1252.01 1148.38
  Q 1257.97 1148.36 1262.48 1148.30
  A 0.40 0.40 0.0 0 0 1262.87 1147.84
  Q 1256.49 1110.34 1251.86 1076.51
  Q 1251.84 1076.37 1251.76 1076.37
  Q 1251.67 1076.37 1251.65 1076.51
  Q 1247.26 1110.37 1241.14 1147.92
  A 0.40 0.40 0.0 0 0 1241.53 1148.38
  Q 1246.04 1148.40 1252.01 1148.38"
/>
<path stroke="#8a8c8f" vector-effect="non-scaling-stroke" d="
  M 719.34 1070.44
  L 719.26 1112.66
  A 0.70 0.70 0.0 0 0 719.96 1113.36
  L 730.24 1113.38
  A 12.69 12.18 -89.9 0 0 742.44 1100.71
  L 742.48 1082.47
  A 12.69 12.18 -89.9 0 0 730.32 1069.76
  L 720.04 1069.74
  A 0.70 0.70 0.0 0 0 719.34 1070.44"
/>
<path stroke="#8a8c8f" vector-effect="non-scaling-stroke" d="
  M 815.51 1148.53
  Q 821.56 1148.52 826.13 1148.46
  A 0.41 0.40 -5.1 0 0 826.53 1147.99
  Q 820.10 1109.98 815.44 1075.69
  Q 815.42 1075.55 815.35 1075.55
  Q 815.25 1075.55 815.23 1075.69
  Q 810.74 1110.00 804.50 1148.05
  A 0.41 0.40 4.8 0 0 804.90 1148.52
  Q 809.47 1148.55 815.51 1148.53"
/>
</g>
<path fill="#ffffff" d="
  M 1773.00 0.00
  L 1773.00 1773.00
  L 0.00 1773.00
  L 0.00 0.00
  L 1773.00 0.00
  Z
  M 1128.31 627.09
  C 1115.13 619.32 1103.08 613.57 1088.25 606.53
  Q 1065.72 595.84 1034.25 584.99
  Q 1006.29 575.36 984.77 570.66
  Q 960.30 565.33 933.92 562.23
  Q 890.75 557.17 843.50 562.00
  Q 825.03 563.89 813.94 565.90
  C 751.83 577.17 692.32 600.60 637.03 631.65
  C 631.34 634.85 624.53 639.25 617.33 643.51
  Q 609.82 647.94 602.67 652.58
  Q 545.58 689.62 495.29 737.51
  C 482.78 749.42 469.98 763.16 459.10 775.53
  A 1.34 1.33 45.2 0 0 459.10 777.30
  Q 502.32 826.03 554.69 865.88
  Q 567.37 875.52 585.06 887.95
  Q 627.77 917.95 674.66 940.51
  C 693.07 949.38 713.54 957.56 731.89 964.35
  Q 784.53 983.83 840.48 990.55
  C 894.40 997.03 949.62 991.45 1002.06 977.39
  Q 1026.91 970.72 1054.30 960.00
  Q 1083.48 948.57 1104.82 938.06
  C 1149.92 915.83 1192.04 888.08 1231.37 856.87
  Q 1262.05 832.53 1286.25 808.25
  Q 1302.54 791.91 1315.17 777.99
  A 2.27 2.26 -40.7 0 0 1315.38 775.21
  Q 1314.83 774.39 1314.00 773.49
  Q 1295.83 753.78 1275.88 734.38
  Q 1252.26 711.41 1216.96 684.06
  Q 1206.40 675.88 1193.50 667.31
  A 0.72 0.71 31.9 0 0 1192.49 667.54
  Q 1183.75 682.12 1168.49 689.96
  A 1.34 1.33 -40.9 0 0 1168.32 692.24
  Q 1178.84 699.72 1195.50 712.25
  C 1220.06 730.71 1240.10 748.89 1264.40 772.18
  Q 1266.37 774.07 1267.46 775.71
  A 1.69 1.68 50.7 0 1 1267.25 777.85
  Q 1235.97 809.10 1201.06 836.05
  Q 1190.07 844.53 1179.83 851.41
  A 5.03 4.92 85.3 0 0 1178.07 853.53
  Q 1168.77 874.75 1151.42 891.96
  Q 1140.45 902.84 1125.63 910.40
  C 1100.49 923.21 1073.20 928.43 1045.47 926.86
  A 7.11 7.07 36.1 0 0 1042.53 927.31
  Q 1027.75 932.99 1007.43 939.39
  C 979.99 948.03 953.38 952.90 924.75 956.05
  C 875.95 961.43 825.87 955.49 778.44 942.86
  C 765.37 939.38 749.91 933.90 734.51 928.83
  A 6.30 6.21 54.2 0 0 732.73 928.53
  Q 729.96 928.47 723.50 928.46
  C 698.19 928.43 672.48 922.05 650.03 909.24
  Q 611.80 887.43 589.99 849.21
  A 8.01 7.95 -86.9 0 0 587.79 846.74
  Q 544.70 814.93 506.69 777.37
  A 1.24 1.24 0.0 0 1 506.69 775.59
  C 532.19 750.43 559.11 726.93 587.77 705.52
  Q 591.10 703.03 592.23 700.96
  Q 599.03 688.44 613.16 672.93
  Q 624.17 660.84 638.22 651.48
  Q 679.28 624.13 729.11 625.10
  A 10.47 10.34 35.7 0 0 732.74 624.53
  Q 751.79 617.95 767.59 613.03
  Q 853.77 586.18 943.24 598.79
  Q 967.68 602.23 994.37 609.63
  Q 1030.13 619.54 1061.36 632.74
  A 1.93 1.90 47.8 0 0 1062.66 632.81
  C 1083.79 626.38 1100.12 627.68 1128.15 627.68
  A 0.32 0.32 0.0 0 0 1128.31 627.09
  Z
  M 863.21 799.18
  C 869.68 785.88 881.05 777.16 896.15 780.56
  C 908.90 783.43 914.10 796.71 918.42 808.35
  Q 919.26 810.62 924.53 825.48
  C 936.63 859.63 959.98 892.55 995.01 905.95
  Q 1011.11 912.11 1028.84 914.34
  Q 1066.34 919.08 1101.36 907.92
  Q 1136.91 896.60 1156.67 868.17
  Q 1158.68 865.28 1160.07 862.74
  C 1162.78 857.78 1165.38 853.47 1167.38 848.53
  Q 1173.90 832.36 1177.67 814.21
  Q 1182.86 789.26 1183.07 788.32
  Q 1184.82 780.76 1187.11 777.27
  C 1190.89 771.51 1197.38 767.91 1203.44 764.33
  A 1.62 1.61 -12.9 0 0 1204.21 763.11
  Q 1205.47 748.88 1204.52 733.51
  A 2.80 2.78 14.0 0 0 1203.18 731.30
  C 1200.83 729.87 1197.08 728.46 1194.68 727.97
  Q 1160.05 720.89 1140.27 718.15
  Q 1101.01 712.72 1059.86 713.43
  A 0.95 0.93 -74.6 0 0 1059.08 713.88
  Q 1054.53 721.32 1051.60 730.07
  A 0.45 0.45 0.0 0 0 1052.04 730.67
  Q 1082.98 729.26 1113.72 734.09
  C 1134.02 737.28 1157.11 745.05 1160.23 769.01
  C 1163.05 790.57 1159.92 813.60 1153.06 834.39
  C 1146.92 853.02 1135.79 870.81 1119.58 881.10
  C 1102.65 891.85 1080.88 897.55 1060.98 898.50
  C 1034.38 899.77 1007.28 896.35 985.69 881.31
  C 962.64 865.26 947.40 837.86 941.29 809.76
  C 936.55 787.90 938.91 767.89 958.23 754.49
  Q 968.42 747.42 980.16 744.21
  A 1.12 1.11 -5.6 0 0 980.98 743.22
  L 982.37 725.64
  A 0.40 0.39 83.9 0 0 981.87 725.23
  C 974.53 727.36 966.96 729.47 960.88 731.53
  Q 945.40 736.77 931.41 741.13
  C 908.63 748.23 886.88 749.72 863.63 744.24
  Q 863.88 732.08 864.30 728.27
  C 867.47 699.97 887.30 677.41 915.73 673.07
  Q 921.90 672.13 941.31 672.33
  Q 943.54 672.35 966.92 672.39
  C 976.28 672.41 983.12 671.46 990.36 666.90
  Q 1010.44 654.30 1010.55 629.32
  A 0.52 0.52 0.0 0 0 1010.03 628.80
  Q 947.04 628.89 937.38 628.79
  Q 915.99 628.57 906.33 630.35
  C 869.24 637.17 839.03 660.31 826.30 696.02
  Q 819.56 714.92 819.56 735.25
  Q 819.55 756.40 819.65 767.02
  Q 819.80 784.07 817.93 794.00
  Q 810.48 833.54 777.10 856.60
  C 756.10 871.11 729.27 876.24 704.01 870.54
  C 669.20 862.69 641.58 837.29 631.87 803.26
  C 616.98 751.10 647.77 697.95 699.31 684.48
  C 741.80 673.37 784.45 691.67 806.86 729.00
  A 0.53 0.53 0.0 0 0 807.84 728.76
  Q 809.62 701.87 820.97 678.12
  A 1.97 1.97 0.0 0 0 820.55 675.85
  Q 800.72 657.00 776.72 647.25
  C 748.13 635.63 714.50 634.26 684.83 642.58
  Q 651.95 651.80 627.43 675.15
  C 598.07 703.10 582.22 740.83 583.72 781.25
  C 584.72 808.39 592.84 835.82 608.80 857.21
  Q 616.52 867.55 621.41 872.59
  Q 650.13 902.22 690.13 912.60
  C 735.30 924.33 782.71 911.93 817.57 881.26
  Q 845.69 856.52 857.29 821.01
  Q 860.90 809.96 863.21 799.18
  Z
  M 1186.05 640.09
  A 0.41 0.41 0.0 0 0 1185.64 639.71
  Q 1177.58 639.69 1096.54 639.84
  Q 1074.78 639.88 1053.31 649.35
  C 1029.07 660.05 1009.44 680.81 1000.22 705.46
  Q 996.36 715.77 994.04 729.92
  Q 992.73 737.90 992.83 755.15
  Q 992.98 781.68 992.82 870.65
  A 2.95 2.94 -73.9 0 0 994.21 873.17
  C 1007.08 881.19 1021.89 885.07 1036.79 886.70
  A 0.57 0.56 2.8 0 0 1037.41 886.14
  L 1037.41 799.98
  A 0.65 0.65 0.0 0 1 1038.06 799.33
  Q 1062.97 799.26 1092.30 799.37
  Q 1100.60 799.40 1105.09 798.08
  C 1123.34 792.72 1134.65 775.20 1134.12 756.41
  A 0.63 0.63 0.0 0 0 1133.49 755.80
  L 1038.05 755.80
  A 0.65 0.64 89.5 0 1 1037.41 755.16
  C 1037.28 746.54 1037.03 737.87 1039.38 729.44
  Q 1045.68 706.83 1064.08 693.78
  C 1071.29 688.66 1078.31 686.21 1086.99 684.24
  Q 1092.33 683.04 1105.61 683.06
  Q 1136.81 683.10 1141.00 683.17
  Q 1151.03 683.32 1156.36 681.81
  C 1175.26 676.44 1187.57 659.74 1186.05 640.09
  Z
  M 676.98 819.67
  C 705.80 851.39 756.99 846.28 778.70 809.19
  Q 794.18 782.75 782.03 752.16
  A 0.30 0.29 -48.7 0 0 781.47 752.20
  C 781.03 753.92 780.60 755.97 779.97 757.33
  C 772.20 774.18 750.90 777.50 738.45 763.80
  C 726.00 750.10 731.33 729.21 748.85 723.09
  C 750.26 722.59 752.34 722.36 754.10 722.08
  A 0.30 0.29 -35.8 0 0 754.19 721.53
  Q 724.90 706.52 697.10 719.41
  C 658.11 737.48 648.15 787.95 676.98 819.67
  Z
  M 863.61 838.62
  Q 847.76 871.94 820.04 894.98
  A 1.87 1.84 -20.0 0 0 819.36 896.41
  L 819.36 923.79
  A 0.47 0.47 0.0 0 0 819.83 924.26
  L 863.41 924.26
  A 0.45 0.45 0.0 0 0 863.86 923.81
  L 863.86 838.68
  A 0.13 0.13 0.0 0 0 863.61 838.62
  Z
  M 574.78 1141.81
  A 0.35 0.35 0.0 0 0 574.43 1141.46
  L 552.90 1141.46
  A 0.44 0.44 0.0 0 0 552.46 1141.90
  Q 552.43 1158.52 552.44 1160.75
  C 552.50 1167.41 551.46 1174.76 544.22 1176.97
  C 539.51 1178.41 533.59 1177.55 530.50 1173.57
  C 528.18 1170.56 527.98 1166.82 527.96 1162.50
  Q 527.79 1109.95 527.97 1082.52
  C 528.02 1074.11 532.38 1067.89 541.49 1068.53
  C 551.27 1069.22 552.56 1077.18 552.58 1085.79
  Q 552.59 1096.79 552.57 1098.55
  A 0.60 0.59 -89.5 0 0 553.16 1099.16
  L 574.26 1099.16
  A 0.35 0.34 -88.2 0 0 574.60 1098.83
  Q 575.18 1088.16 574.47 1078.53
  Q 573.54 1065.95 565.81 1057.23
  C 560.37 1051.10 554.05 1048.19 546.00 1047.23
  C 537.40 1046.21 527.37 1047.11 520.03 1051.63
  C 509.53 1058.10 504.67 1069.38 504.61 1081.48
  Q 504.54 1095.16 504.56 1153.77
  Q 504.56 1165.60 504.76 1167.73
  C 506.41 1185.17 515.43 1197.10 534.24 1198.82
  C 559.08 1201.08 574.10 1189.05 574.78 1164.00
  Q 574.93 1158.43 574.78 1141.81
  Z
  M 219.88 1123.19
  Q 219.92 1158.87 219.92 1162.01
  Q 219.92 1172.72 224.01 1181.28
  C 230.18 1194.21 241.63 1199.23 255.85 1199.22
  C 270.06 1199.20 281.50 1194.15 287.65 1181.21
  Q 291.72 1172.64 291.69 1161.93
  Q 291.69 1158.79 291.65 1123.11
  Q 291.61 1087.43 291.61 1084.29
  Q 291.61 1073.58 287.52 1065.03
  C 281.34 1052.09 269.89 1047.07 255.68 1047.09
  C 241.47 1047.10 230.03 1052.15 223.88 1065.10
  Q 219.81 1073.66 219.83 1084.37
  Q 219.84 1087.51 219.88 1123.19
  Z
  M 1466.33 1123.13
  Q 1466.37 1087.44 1466.37 1084.30
  Q 1466.39 1073.59 1462.32 1065.03
  C 1456.18 1052.08 1444.73 1047.03 1430.52 1047.01
  C 1416.30 1047.00 1404.85 1052.02 1398.67 1064.96
  Q 1394.58 1073.51 1394.58 1084.22
  Q 1394.58 1087.36 1394.54 1123.05
  Q 1394.51 1158.74 1394.50 1161.88
  Q 1394.48 1172.59 1398.55 1181.16
  C 1404.70 1194.10 1416.14 1199.15 1430.35 1199.17
  C 1444.57 1199.18 1456.02 1194.16 1462.20 1181.22
  Q 1466.29 1172.67 1466.29 1161.96
  Q 1466.29 1158.82 1466.33 1123.13
  Z
  M 307.15 1197.45
  L 329.57 1197.45
  A 0.52 0.51 -0.0 0 0 330.09 1196.94
  L 330.09 1139.64
  A 0.67 0.66 -89.2 0 1 330.77 1138.97
  Q 338.14 1139.09 344.79 1138.82
  C 365.97 1137.98 376.70 1123.57 376.69 1103.25
  C 376.68 1087.17 379.14 1063.53 362.95 1053.95
  Q 353.71 1048.48 341.50 1048.57
  Q 326.80 1048.67 307.03 1048.55
  A 0.40 0.39 -89.3 0 0 306.63 1048.95
  L 306.63 1196.93
  A 0.52 0.52 0.0 0 0 307.15 1197.45
  Z
  M 418.38 1197.53
  Q 428.69 1197.54 429.86 1197.48
  A 0.46 0.45 88.8 0 0 430.30 1197.02
  L 430.33 1070.47
  A 0.53 0.53 0.0 0 1 430.86 1069.94
  L 454.36 1069.95
  A 0.55 0.55 0.0 0 0 454.91 1069.40
  L 454.92 1049.10
  A 0.44 0.44 0.0 0 0 454.49 1048.66
  Q 451.80 1048.64 418.55 1048.60
  Q 385.30 1048.56 382.62 1048.58
  A 0.44 0.44 0.0 0 0 382.18 1049.02
  L 382.14 1069.32
  A 0.55 0.55 0.0 0 0 382.69 1069.87
  L 406.19 1069.91
  A 0.53 0.53 0.0 0 1 406.72 1070.45
  L 406.47 1197.00
  A 0.46 0.45 -88.7 0 0 406.91 1197.46
  Q 408.08 1197.52 418.38 1197.53
  Z
  M 489.13 1049.07
  A 0.48 0.48 0.0 0 0 488.65 1048.59
  L 465.93 1048.59
  A 0.48 0.48 0.0 0 0 465.45 1049.07
  L 465.45 1196.91
  A 0.48 0.48 0.0 0 0 465.93 1197.39
  L 488.65 1197.39
  A 0.48 0.48 0.0 0 0 489.13 1196.91
  L 489.13 1049.07
  Z
  M 684.64 1049.14
  A 0.52 0.52 0.0 0 0 684.12 1048.62
  L 623.08 1048.62
  A 0.52 0.52 0.0 0 0 622.56 1049.14
  L 622.56 1196.98
  A 0.52 0.52 0.0 0 0 623.08 1197.50
  L 645.59 1197.50
  A 0.52 0.52 0.0 0 0 646.11 1196.98
  L 646.11 1134.27
  A 0.52 0.52 0.0 0 1 646.63 1133.75
  L 676.26 1133.75
  A 0.52 0.52 0.0 0 0 676.78 1133.23
  L 676.78 1112.76
  A 0.52 0.52 0.0 0 0 676.26 1112.24
  L 646.64 1112.24
  A 0.52 0.52 0.0 0 1 646.12 1111.72
  L 646.12 1070.40
  A 0.52 0.52 0.0 0 1 646.64 1069.88
  L 684.12 1069.88
  A 0.52 0.52 0.0 0 0 684.64 1069.36
  L 684.64 1049.14
  Z
  M 890.22 1094.09
  L 919.10 1197.16
  A 0.53 0.53 0.0 0 0 919.61 1197.54
  L 943.07 1197.54
  A 0.49 0.48 -90.0 0 0 943.55 1197.05
  L 943.55 1049.11
  A 0.48 0.48 0.0 0 0 943.07 1048.63
  L 922.36 1048.63
  A 0.31 0.31 0.0 0 0 922.05 1048.94
  L 922.25 1135.93
  A 0.02 0.02 0.0 0 1 922.21 1135.94
  L 897.91 1049.22
  A 0.82 0.82 0.0 0 0 897.12 1048.62
  L 868.69 1048.62
  A 0.51 0.51 0.0 0 0 868.18 1049.13
  L 868.18 1196.96
  A 0.54 0.53 90.0 0 0 868.71 1197.50
  L 889.18 1197.50
  A 0.63 0.63 0.0 0 0 889.81 1196.87
  L 889.81 1094.15
  A 0.21 0.21 0.0 0 1 890.22 1094.09
  Z
  M 1078.00 1070.54
  Q 1055.86 1121.17 1034.08 1174.82
  A 5.68 5.65 -34.1 0 0 1033.66 1176.96
  L 1033.66 1197.07
  A 0.49 0.48 -0.0 0 0 1034.15 1197.55
  L 1102.20 1197.55
  A 0.41 0.41 0.0 0 0 1102.61 1197.14
  L 1102.61 1176.15
  A 0.38 0.38 0.0 0 0 1102.23 1175.77
  L 1058.30 1175.77
  A 0.47 0.47 0.0 0 1 1057.87 1175.12
  L 1101.96 1071.09
  A 5.98 5.92 56.7 0 0 1102.43 1068.77
  L 1102.43 1049.10
  A 0.44 0.43 90.0 0 0 1102.00 1048.66
  L 1035.95 1048.66
  A 0.48 0.48 0.0 0 0 1035.47 1049.14
  L 1035.47 1069.43
  A 0.50 0.49 0.0 0 0 1035.97 1069.92
  L 1077.60 1069.92
  A 0.44 0.44 0.0 0 1 1078.00 1070.54
  Z
  M 1149.83 1048.92
  L 1149.85 1197.08
  A 0.42 0.41 -90.0 0 0 1150.26 1197.50
  L 1172.87 1197.49
  A 0.51 0.51 0.0 0 0 1173.37 1196.98
  L 1173.38 1134.36
  A 0.64 0.63 0.0 0 1 1174.02 1133.73
  L 1203.45 1133.78
  A 0.53 0.53 0.0 0 0 1203.98 1133.25
  L 1204.10 1112.72
  A 0.49 0.49 0.0 0 0 1203.61 1112.23
  L 1173.99 1112.29
  A 0.60 0.60 0.0 0 1 1173.39 1111.69
  L 1173.40 1070.35
  A 0.45 0.44 -90.0 0 1 1173.84 1069.90
  L 1211.44 1069.92
  A 0.45 0.45 0.0 0 0 1211.89 1069.47
  L 1211.90 1049.14
  A 0.50 0.50 0.0 0 0 1211.40 1048.64
  L 1150.08 1048.67
  A 0.25 0.25 0.0 0 0 1149.83 1048.92
  Z
  M 1294.71 1197.19
  C 1285.68 1148.42 1278.79 1103.77 1269.45 1049.24
  A 0.73 0.73 0.0 0 0 1268.73 1048.64
  L 1237.15 1048.64
  A 0.73 0.73 0.0 0 0 1236.43 1049.25
  L 1211.67 1197.00
  A 0.45 0.45 0.0 0 0 1212.11 1197.53
  L 1233.35 1197.53
  A 0.64 0.64 0.0 0 0 1233.98 1196.98
  L 1237.85 1169.90
  A 0.64 0.63 -86.4 0 1 1238.48 1169.34
  L 1265.34 1169.34
  A 0.72 0.71 85.2 0 1 1266.04 1169.94
  L 1270.71 1197.19
  A 0.40 0.39 -4.2 0 0 1271.10 1197.52
  L 1294.43 1197.52
  A 0.28 0.28 0.0 0 0 1294.71 1197.19
  Z
  M 1326.23 1092.67
  L 1355.48 1197.07
  A 0.58 0.58 0.0 0 0 1356.04 1197.49
  L 1379.31 1197.49
  A 0.45 0.45 0.0 0 0 1379.76 1197.04
  L 1379.76 1049.24
  A 0.58 0.57 0.0 0 0 1379.18 1048.67
  L 1359.15 1048.67
  A 0.37 0.36 -0.0 0 0 1358.78 1049.03
  L 1358.78 1135.93
  A 0.15 0.15 0.0 0 1 1358.49 1135.97
  L 1334.16 1049.13
  A 0.64 0.63 82.1 0 0 1333.55 1048.66
  L 1305.05 1048.66
  A 0.38 0.38 0.0 0 0 1304.67 1049.04
  L 1304.67 1197.03
  A 0.47 0.47 0.0 0 0 1305.14 1197.50
  L 1325.32 1197.50
  A 0.65 0.64 0.0 0 0 1325.97 1196.86
  L 1325.97 1092.70
  A 0.13 0.13 0.0 0 1 1326.23 1092.67
  Z
  M 751.81 1122.40
  Q 762.71 1115.66 764.84 1104.60
  Q 767.71 1089.74 765.27 1073.75
  Q 762.41 1055.00 745.01 1050.29
  Q 739.04 1048.68 735.24 1048.67
  Q 713.22 1048.60 696.15 1048.67
  A 0.35 0.35 0.0 0 0 695.80 1049.02
  L 695.80 1196.95
  A 0.51 0.50 -90.0 0 0 696.30 1197.46
  L 718.83 1197.46
  A 0.48 0.47 -90.0 0 0 719.30 1196.98
  L 719.30 1135.62
  A 0.60 0.60 0.0 0 1 719.85 1135.02
  Q 723.20 1134.75 727.35 1134.86
  C 736.20 1135.09 741.71 1140.31 742.03 1149.55
  Q 742.56 1165.07 742.35 1180.00
  Q 742.23 1188.62 744.33 1196.44
  A 1.43 1.42 -7.4 0 0 745.71 1197.50
  L 768.81 1197.50
  A 0.30 0.30 0.0 0 0 769.08 1197.07
  Q 766.28 1190.84 766.26 1183.48
  Q 766.19 1155.50 766.06 1150.50
  C 765.77 1139.43 761.91 1128.87 751.82 1123.10
  A 0.41 0.41 0.0 0 1 751.81 1122.40
  Z
  M 800.27 1048.67
  A 0.53 0.53 0.0 0 0 799.75 1049.11
  L 774.98 1196.89
  A 0.53 0.53 0.0 0 0 775.51 1197.51
  L 796.54 1197.51
  A 0.53 0.53 0.0 0 0 797.06 1197.07
  L 801.65 1169.72
  A 0.53 0.53 0.0 0 1 802.17 1169.28
  L 829.15 1169.28
  A 0.53 0.53 0.0 0 1 829.68 1169.72
  L 834.35 1197.04
  A 0.53 0.53 0.0 0 0 834.88 1197.48
  L 857.63 1197.48
  A 0.53 0.53 0.0 0 0 858.15 1196.86
  L 832.89 1049.11
  A 0.53 0.53 0.0 0 0 832.36 1048.67
  L 800.27 1048.67
  Z
  M 990.19 1197.51
  Q 1000.49 1197.52 1001.67 1197.46
  A 0.46 0.45 88.8 0 0 1002.10 1197.00
  L 1002.10 1070.48
  A 0.53 0.53 0.0 0 1 1002.63 1069.95
  L 1026.13 1069.95
  A 0.55 0.55 0.0 0 0 1026.68 1069.40
  L 1026.68 1049.11
  A 0.44 0.44 0.0 0 0 1026.25 1048.67
  Q 1023.56 1048.65 990.32 1048.62
  Q 957.08 1048.59 954.39 1048.61
  A 0.44 0.44 0.0 0 0 953.96 1049.05
  L 953.92 1069.34
  A 0.55 0.55 0.0 0 0 954.47 1069.89
  L 977.97 1069.93
  A 0.53 0.53 0.0 0 1 978.50 1070.46
  L 978.28 1196.98
  A 0.46 0.45 -88.7 0 0 978.71 1197.44
  Q 979.89 1197.50 990.19 1197.51
  Z
  M 1535.24 1136.45
  Q 1535.21 1136.44 1535.18 1136.41
  A 0.21 0.17 12.4 0 1 1535.10 1136.31
  L 1510.99 1049.14
  A 0.67 0.67 0.0 0 0 1510.35 1048.66
  L 1481.70 1048.66
  A 0.49 0.49 0.0 0 0 1481.21 1049.15
  L 1481.21 1196.82
  A 0.69 0.69 0.0 0 0 1481.90 1197.51
  L 1502.22 1197.51
  A 0.49 0.49 0.0 0 0 1502.71 1197.02
  L 1502.71 1092.62
  A 0.04 0.04 0.0 0 1 1502.78 1092.61
  L 1531.90 1196.94
  A 0.79 0.78 -7.7 0 0 1532.66 1197.51
  L 1556.36 1197.51
  A 0.44 0.44 0.0 0 0 1556.80 1197.07
  L 1556.80 1049.21
  A 0.54 0.54 0.0 0 0 1556.26 1048.67
  L 1535.81 1048.67
  A 0.57 0.57 0.0 0 0 1535.24 1049.24
  L 1535.42 1136.34
  A 0.13 0.12 12.4 0 1 1535.24 1136.45
  Z"
/>
<path fill="#303239" d="
  M 1128.31 627.09
  A 0.32 0.32 0.0 0 1 1128.15 627.68
  C 1100.12 627.68 1083.79 626.38 1062.66 632.81
  A 1.93 1.90 47.8 0 1 1061.36 632.74
  Q 1030.13 619.54 994.37 609.63
  Q 967.68 602.23 943.24 598.79
  Q 853.77 586.18 767.59 613.03
  Q 751.79 617.95 732.74 624.53
  A 10.47 10.34 35.7 0 1 729.11 625.10
  Q 679.28 624.13 638.22 651.48
  Q 624.17 660.84 613.16 672.93
  Q 599.03 688.44 592.23 700.96
  Q 591.10 703.03 587.77 705.52
  C 559.11 726.93 532.19 750.43 506.69 775.59
  A 1.24 1.24 0.0 0 0 506.69 777.37
  Q 544.70 814.93 587.79 846.74
  A 8.01 7.95 -86.9 0 1 589.99 849.21
  Q 611.80 887.43 650.03 909.24
  C 672.48 922.05 698.19 928.43 723.50 928.46
  Q 729.96 928.47 732.73 928.53
  A 6.30 6.21 54.2 0 1 734.51 928.83
  C 749.91 933.90 765.37 939.38 778.44 942.86
  C 825.87 955.49 875.95 961.43 924.75 956.05
  C 953.38 952.90 979.99 948.03 1007.43 939.39
  Q 1027.75 932.99 1042.53 927.31
  A 7.11 7.07 36.1 0 1 1045.47 926.86
  C 1073.20 928.43 1100.49 923.21 1125.63 910.40
  Q 1140.45 902.84 1151.42 891.96
  Q 1168.77 874.75 1178.07 853.53
  A 5.03 4.92 85.3 0 1 1179.83 851.41
  Q 1190.07 844.53 1201.06 836.05
  Q 1235.97 809.10 1267.25 777.85
  A 1.69 1.68 50.7 0 0 1267.46 775.71
  Q 1266.37 774.07 1264.40 772.18
  C 1240.10 748.89 1220.06 730.71 1195.50 712.25
  Q 1178.84 699.72 1168.32 692.24
  A 1.34 1.33 -40.9 0 1 1168.49 689.96
  Q 1183.75 682.12 1192.49 667.54
  A 0.72 0.71 31.9 0 1 1193.50 667.31
  Q 1206.40 675.88 1216.96 684.06
  Q 1252.26 711.41 1275.88 734.38
  Q 1295.83 753.78 1314.00 773.49
  Q 1314.83 774.39 1315.38 775.21
  A 2.27 2.26 -40.7 0 1 1315.17 777.99
  Q 1302.54 791.91 1286.25 808.25
  Q 1262.05 832.53 1231.37 856.87
  C 1192.04 888.08 1149.92 915.83 1104.82 938.06
  Q 1083.48 948.57 1054.30 960.00
  Q 1026.91 970.72 1002.06 977.39
  C 949.62 991.45 894.40 997.03 840.48 990.55
  Q 784.53 983.83 731.89 964.35
  C 713.54 957.56 693.07 949.38 674.66 940.51
  Q 627.77 917.95 585.06 887.95
  Q 567.37 875.52 554.69 865.88
  Q 502.32 826.03 459.10 777.30
  A 1.34 1.33 45.2 0 1 459.10 775.53
  C 469.98 763.16 482.78 749.42 495.29 737.51
  Q 545.58 689.62 602.67 652.58
  Q 609.82 647.94 617.33 643.51
  C 624.53 639.25 631.34 634.85 637.03 631.65
  C 692.32 600.60 751.83 577.17 813.94 565.90
  Q 825.03 563.89 843.50 562.00
  Q 890.75 557.17 933.92 562.23
  Q 960.30 565.33 984.77 570.66
  Q 1006.29 575.36 1034.25 584.99
  Q 1065.72 595.84 1088.25 606.53
  C 1103.08 613.57 1115.13 619.32 1128.31 627.09
  Z"
/>
<path fill="#920f1c" d="
  M 863.63 744.24
  Q 864.24 771.49 863.21 799.18
  Q 860.90 809.96 857.29 821.01
  Q 845.69 856.52 817.57 881.26
  C 782.71 911.93 735.30 924.33 690.13 912.60
  Q 650.13 902.22 621.41 872.59
  Q 616.52 867.55 608.80 857.21
  C 592.84 835.82 584.72 808.39 583.72 781.25
  C 582.22 740.83 598.07 703.10 627.43 675.15
  Q 651.95 651.80 684.83 642.58
  C 714.50 634.26 748.13 635.63 776.72 647.25
  Q 800.72 657.00 820.55 675.85
  A 1.97 1.97 0.0 0 1 820.97 678.12
  Q 809.62 701.87 807.84 728.76
  A 0.53 0.53 0.0 0 1 806.86 729.00
  C 784.45 691.67 741.80 673.37 699.31 684.48
  C 647.77 697.95 616.98 751.10 631.87 803.26
  C 641.58 837.29 669.20 862.69 704.01 870.54
  C 729.27 876.24 756.10 871.11 777.10 856.60
  Q 810.48 833.54 817.93 794.00
  Q 819.80 784.07 819.65 767.02
  Q 819.55 756.40 819.56 735.25
  Q 819.56 714.92 826.30 696.02
  C 839.03 660.31 869.24 637.17 906.33 630.35
  Q 915.99 628.57 937.38 628.79
  Q 947.04 628.89 1010.03 628.80
  A 0.52 0.52 0.0 0 1 1010.55 629.32
  Q 1010.44 654.30 990.36 666.90
  C 983.12 671.46 976.28 672.41 966.92 672.39
  Q 943.54 672.35 941.31 672.33
  Q 921.90 672.13 915.73 673.07
  C 887.30 677.41 867.47 699.97 864.30 728.27
  Q 863.88 732.08 863.63 744.24
  Z"
/>
<path fill="#920f1c" d="
  M 1186.05 640.09
  C 1187.57 659.74 1175.26 676.44 1156.36 681.81
  Q 1151.03 683.32 1141.00 683.17
  Q 1136.81 683.10 1105.61 683.06
  Q 1092.33 683.04 1086.99 684.24
  C 1078.31 686.21 1071.29 688.66 1064.08 693.78
  Q 1045.68 706.83 1039.38 729.44
  C 1037.03 737.87 1037.28 746.54 1037.41 755.16
  A 0.65 0.64 89.5 0 0 1038.05 755.80
  L 1133.49 755.80
  A 0.63 0.63 0.0 0 1 1134.12 756.41
  C 1134.65 775.20 1123.34 792.72 1105.09 798.08
  Q 1100.60 799.40 1092.30 799.37
  Q 1062.97 799.26 1038.06 799.33
  A 0.65 0.65 0.0 0 0 1037.41 799.98
  L 1037.41 886.14
  A 0.57 0.56 2.8 0 1 1036.79 886.70
  C 1021.89 885.07 1007.08 881.19 994.21 873.17
  A 2.95 2.94 -73.9 0 1 992.82 870.65
  Q 992.98 781.68 992.83 755.15
  Q 992.73 737.90 994.04 729.92
  Q 996.36 715.77 1000.22 705.46
  C 1009.44 680.81 1029.07 660.05 1053.31 649.35
  Q 1074.78 639.88 1096.54 639.84
  Q 1177.58 639.69 1185.64 639.71
  A 0.41 0.41 0.0 0 1 1186.05 640.09
  Z"
/>
<path fill="#303239" d="
  M 738.45 763.80
  C 750.90 777.50 772.20 774.18 779.97 757.33
  C 780.60 755.97 781.03 753.92 781.47 752.20
  A 0.30 0.29 -48.7 0 1 782.03 752.16
  Q 794.18 782.75 778.70 809.19
  C 756.99 846.28 705.80 851.39 676.98 819.67
  C 648.15 787.95 658.11 737.48 697.10 719.41
  Q 724.90 706.52 754.19 721.53
  A 0.30 0.29 -35.8 0 1 754.10 722.08
  C 752.34 722.36 750.26 722.59 748.85 723.09
  C 731.33 729.21 726.00 750.10 738.45 763.80
  Z"
/>
<path fill="#303239" d="
  M 863.21 799.18
  Q 864.24 771.49 863.63 744.24
  C 886.88 749.72 908.63 748.23 931.41 741.13
  Q 945.40 736.77 960.88 731.53
  C 966.96 729.47 974.53 727.36 981.87 725.23
  A 0.40 0.39 83.9 0 1 982.37 725.64
  L 980.98 743.22
  A 1.12 1.11 -5.6 0 1 980.16 744.21
  Q 968.42 747.42 958.23 754.49
  C 938.91 767.89 936.55 787.90 941.29 809.76
  C 947.40 837.86 962.64 865.26 985.69 881.31
  C 1007.28 896.35 1034.38 899.77 1060.98 898.50
  C 1080.88 897.55 1102.65 891.85 1119.58 881.10
  C 1135.79 870.81 1146.92 853.02 1153.06 834.39
  C 1159.92 813.60 1163.05 790.57 1160.23 769.01
  C 1157.11 745.05 1134.02 737.28 1113.72 734.09
  Q 1082.98 729.26 1052.04 730.67
  A 0.45 0.45 0.0 0 1 1051.60 730.07
  Q 1054.53 721.32 1059.08 713.88
  A 0.95 0.93 -74.6 0 1 1059.86 713.43
  Q 1101.01 712.72 1140.27 718.15
  Q 1160.05 720.89 1194.68 727.97
  C 1197.08 728.46 1200.83 729.87 1203.18 731.30
  A 2.80 2.78 14.0 0 1 1204.52 733.51
  Q 1205.47 748.88 1204.21 763.11
  A 1.62 1.61 -12.9 0 1 1203.44 764.33
  C 1197.38 767.91 1190.89 771.51 1187.11 777.27
  Q 1184.82 780.76 1183.07 788.32
  Q 1182.86 789.26 1177.67 814.21
  Q 1173.90 832.36 1167.38 848.53
  C 1165.38 853.47 1162.78 857.78 1160.07 862.74
  Q 1158.68 865.28 1156.67 868.17
  Q 1136.91 896.60 1101.36 907.92
  Q 1066.34 919.08 1028.84 914.34
  Q 1011.11 912.11 995.01 905.95
  C 959.98 892.55 936.63 859.63 924.53 825.48
  Q 919.26 810.62 918.42 808.35
  C 914.10 796.71 908.90 783.43 896.15 780.56
  C 881.05 777.16 869.68 785.88 863.21 799.18
  Z"
/>
<path fill="#920f1c" d="
  M 863.61 838.62
  A 0.13 0.13 0.0 0 1 863.86 838.68
  L 863.86 923.81
  A 0.45 0.45 0.0 0 1 863.41 924.26
  L 819.83 924.26
  A 0.47 0.47 0.0 0 1 819.36 923.79
  L 819.36 896.41
  A 1.87 1.84 -20.0 0 1 820.04 894.98
  Q 847.76 871.94 863.61 838.62
  Z"
/>
<path fill="#920f1c" d="
  M 574.78 1141.81
  Q 574.93 1158.43 574.78 1164.00
  C 574.10 1189.05 559.08 1201.08 534.24 1198.82
  C 515.43 1197.10 506.41 1185.17 504.76 1167.73
  Q 504.56 1165.60 504.56 1153.77
  Q 504.54 1095.16 504.61 1081.48
  C 504.67 1069.38 509.53 1058.10 520.03 1051.63
  C 527.37 1047.11 537.40 1046.21 546.00 1047.23
  C 554.05 1048.19 560.37 1051.10 565.81 1057.23
  Q 573.54 1065.95 574.47 1078.53
  Q 575.18 1088.16 574.60 1098.83
  A 0.35 0.34 -88.2 0 1 574.26 1099.16
  L 553.16 1099.16
  A 0.60 0.59 -89.5 0 1 552.57 1098.55
  Q 552.59 1096.79 552.58 1085.79
  C 552.56 1077.18 551.27 1069.22 541.49 1068.53
  C 532.38 1067.89 528.02 1074.11 527.97 1082.52
  Q 527.79 1109.95 527.96 1162.50
  C 527.98 1166.82 528.18 1170.56 530.50 1173.57
  C 533.59 1177.55 539.51 1178.41 544.22 1176.97
  C 551.46 1174.76 552.50 1167.41 552.44 1160.75
  Q 552.43 1158.52 552.46 1141.90
  A 0.44 0.44 0.0 0 1 552.90 1141.46
  L 574.43 1141.46
  A 0.35 0.35 0.0 0 1 574.78 1141.81
  Z"
/>
<path fill="#920f1c" d="
  M 255.68 1047.09
  C 269.89 1047.07 281.34 1052.09 287.52 1065.03
  Q 291.61 1073.58 291.61 1084.29
  Q 291.61 1087.43 291.65 1123.11
  Q 291.69 1158.79 291.69 1161.93
  Q 291.72 1172.64 287.65 1181.21
  C 281.50 1194.15 270.06 1199.20 255.85 1199.22
  C 241.63 1199.23 230.18 1194.21 224.01 1181.28
  Q 219.92 1172.72 219.92 1162.01
  Q 219.92 1158.87 219.88 1123.19
  Q 219.84 1087.51 219.83 1084.37
  Q 219.81 1073.66 223.88 1065.10
  C 230.03 1052.15 241.47 1047.10 255.68 1047.09
  Z
  M 268.02 1080.47
  A 11.96 11.96 0.0 0 0 256.06 1068.51
  L 255.40 1068.51
  A 11.96 11.96 0.0 0 0 243.44 1080.47
  L 243.44 1165.61
  A 11.96 11.96 0.0 0 0 255.40 1177.57
  L 256.06 1177.57
  A 11.96 11.96 0.0 0 0 268.02 1165.61
  L 268.02 1080.47
  Z"
/>
<path fill="#14191f" d="
  M 1466.33 1123.13
  Q 1466.29 1158.82 1466.29 1161.96
  Q 1466.29 1172.67 1462.20 1181.22
  C 1456.02 1194.16 1444.57 1199.18 1430.35 1199.17
  C 1416.14 1199.15 1404.70 1194.10 1398.55 1181.16
  Q 1394.48 1172.59 1394.50 1161.88
  Q 1394.51 1158.74 1394.54 1123.05
  Q 1394.58 1087.36 1394.58 1084.22
  Q 1394.58 1073.51 1398.67 1064.96
  C 1404.85 1052.02 1416.30 1047.00 1430.52 1047.01
  C 1444.73 1047.03 1456.18 1052.08 1462.32 1065.03
  Q 1466.39 1073.59 1466.37 1084.30
  Q 1466.37 1087.44 1466.33 1123.13
  Z
  M 1442.7852 1080.0388
  A 11.63 11.63 0.0 0 0 1431.1349 1068.4291
  L 1430.0349 1068.4310
  A 11.63 11.63 0.0 0 0 1418.4252 1080.0813
  L 1418.5748 1165.8212
  A 11.63 11.63 0.0 0 0 1430.2251 1177.4309
  L 1431.3251 1177.4290
  A 11.63 11.63 0.0 0 0 1442.9348 1165.7787
  L 1442.7852 1080.0388
  Z"
/>
<path fill="#920f1c" d="
  M 307.15 1197.45
  A 0.52 0.52 0.0 0 1 306.63 1196.93
  L 306.63 1048.95
  A 0.40 0.39 -89.3 0 1 307.03 1048.55
  Q 326.80 1048.67 341.50 1048.57
  Q 353.71 1048.48 362.95 1053.95
  C 379.14 1063.53 376.68 1087.17 376.69 1103.25
  C 376.70 1123.57 365.97 1137.98 344.79 1138.82
  Q 338.14 1139.09 330.77 1138.97
  A 0.67 0.66 -89.2 0 0 330.09 1139.64
  L 330.09 1196.94
  A 0.52 0.51 0.0 0 1 329.57 1197.45
  L 307.15 1197.45
  Z
  M 330.08 1070.44
  L 330.08 1116.98
  A 0.44 0.44 0.0 0 0 330.52 1117.42
  L 341.71 1117.42
  A 11.62 11.33 -90.0 0 0 353.04 1105.80
  L 353.04 1081.62
  A 11.62 11.33 90.0 0 0 341.71 1070.00
  L 330.52 1070.00
  A 0.44 0.44 0.0 0 0 330.08 1070.44
  Z"
/>
<path fill="#920f1c" d="
  M 418.38 1197.53
  Q 408.08 1197.52 406.91 1197.46
  A 0.46 0.45 -88.7 0 1 406.47 1197.00
  L 406.72 1070.45
  A 0.53 0.53 0.0 0 0 406.19 1069.91
  L 382.69 1069.87
  A 0.55 0.55 0.0 0 1 382.14 1069.32
  L 382.18 1049.02
  A 0.44 0.44 0.0 0 1 382.62 1048.58
  Q 385.30 1048.56 418.55 1048.60
  Q 451.80 1048.64 454.49 1048.66
  A 0.44 0.44 0.0 0 1 454.92 1049.10
  L 454.91 1069.40
  A 0.55 0.55 0.0 0 1 454.36 1069.95
  L 430.86 1069.94
  A 0.53 0.53 0.0 0 0 430.33 1070.47
  L 430.30 1197.02
  A 0.46 0.45 88.8 0 1 429.86 1197.48
  Q 428.69 1197.54 418.38 1197.53
  Z"
/>
<rect fill="#920f1c" x="465.45" y="1048.59" width="23.68" height="148.80" rx="0.48"/>
<path fill="#14191f" d="
  M 684.64 1049.14
  L 684.64 1069.36
  A 0.52 0.52 0.0 0 1 684.12 1069.88
  L 646.64 1069.88
  A 0.52 0.52 0.0 0 0 646.12 1070.40
  L 646.12 1111.72
  A 0.52 0.52 0.0 0 0 646.64 1112.24
  L 676.26 1112.24
  A 0.52 0.52 0.0 0 1 676.78 1112.76
  L 676.78 1133.23
  A 0.52 0.52 0.0 0 1 676.26 1133.75
  L 646.63 1133.75
  A 0.52 0.52 0.0 0 0 646.11 1134.27
  L 646.11 1196.98
  A 0.52 0.52 0.0 0 1 645.59 1197.50
  L 623.08 1197.50
  A 0.52 0.52 0.0 0 1 622.56 1196.98
  L 622.56 1049.14
  A 0.52 0.52 0.0 0 1 623.08 1048.62
  L 684.12 1048.62
  A 0.52 0.52 0.0 0 1 684.64 1049.14
  Z"
/>
<path fill="#14191f" d="
  M 890.22 1094.09
  A 0.21 0.21 0.0 0 0 889.81 1094.15
  L 889.81 1196.87
  A 0.63 0.63 0.0 0 1 889.18 1197.50
  L 868.71 1197.50
  A 0.54 0.53 -90.0 0 1 868.18 1196.96
  L 868.18 1049.13
  A 0.51 0.51 0.0 0 1 868.69 1048.62
  L 897.12 1048.62
  A 0.82 0.82 0.0 0 1 897.91 1049.22
  L 922.21 1135.94
  A 0.02 0.02 0.0 0 0 922.25 1135.93
  L 922.05 1048.94
  A 0.31 0.31 0.0 0 1 922.36 1048.63
  L 943.07 1048.63
  A 0.48 0.48 0.0 0 1 943.55 1049.11
  L 943.55 1197.05
  A 0.49 0.48 90.0 0 1 943.07 1197.54
  L 919.61 1197.54
  A 0.53 0.53 0.0 0 1 919.10 1197.16
  L 890.22 1094.09
  Z"
/>
<path fill="#14191f" d="
  M 1078.00 1070.54
  A 0.44 0.44 0.0 0 0 1077.60 1069.92
  L 1035.97 1069.92
  A 0.50 0.49 0.0 0 1 1035.47 1069.43
  L 1035.47 1049.14
  A 0.48 0.48 0.0 0 1 1035.95 1048.66
  L 1102.00 1048.66
  A 0.44 0.43 -90.0 0 1 1102.43 1049.10
  L 1102.43 1068.77
  A 5.98 5.92 56.7 0 1 1101.96 1071.09
  L 1057.87 1175.12
  A 0.47 0.47 0.0 0 0 1058.30 1175.77
  L 1102.23 1175.77
  A 0.38 0.38 0.0 0 1 1102.61 1176.15
  L 1102.61 1197.14
  A 0.41 0.41 0.0 0 1 1102.20 1197.55
  L 1034.15 1197.55
  A 0.49 0.48 0.0 0 1 1033.66 1197.07
  L 1033.66 1176.96
  A 5.68 5.65 -34.1 0 1 1034.08 1174.82
  Q 1055.86 1121.17 1078.00 1070.54
  Z"
/>
<path fill="#14191f" d="
  M 1149.83 1048.92
  A 0.25 0.25 0.0 0 1 1150.08 1048.67
  L 1211.40 1048.64
  A 0.50 0.50 0.0 0 1 1211.90 1049.14
  L 1211.89 1069.47
  A 0.45 0.45 0.0 0 1 1211.44 1069.92
  L 1173.84 1069.90
  A 0.45 0.44 -90.0 0 0 1173.40 1070.35
  L 1173.39 1111.69
  A 0.60 0.60 0.0 0 0 1173.99 1112.29
  L 1203.61 1112.23
  A 0.49 0.49 0.0 0 1 1204.10 1112.72
  L 1203.98 1133.25
  A 0.53 0.53 0.0 0 1 1203.45 1133.78
  L 1174.02 1133.73
  A 0.64 0.63 0.0 0 0 1173.38 1134.36
  L 1173.37 1196.98
  A 0.51 0.51 0.0 0 1 1172.87 1197.49
  L 1150.26 1197.50
  A 0.42 0.41 -90.0 0 1 1149.85 1197.08
  L 1149.83 1048.92
  Z"
/>
<path fill="#14191f" d="
  M 1294.71 1197.19
  A 0.28 0.28 0.0 0 1 1294.43 1197.52
  L 1271.10 1197.52
  A 0.40 0.39 -4.2 0 1 1270.71 1197.19
  L 1266.04 1169.94
  A 0.72 0.71 85.2 0 0 1265.34 1169.34
  L 1238.48 1169.34
  A 0.64 0.63 -86.4 0 0 1237.85 1169.90
  L 1233.98 1196.98
  A 0.64 0.64 0.0 0 1 1233.35 1197.53
  L 1212.11 1197.53
  A 0.45 0.45 0.0 0 1 1211.67 1197.00
  L 1236.43 1049.25
  A 0.73 0.73 0.0 0 1 1237.15 1048.64
  L 1268.73 1048.64
  A 0.73 0.73 0.0 0 1 1269.45 1049.24
  C 1278.79 1103.77 1285.68 1148.42 1294.71 1197.19
  Z
  M 1252.01 1148.38
  Q 1257.97 1148.36 1262.48 1148.30
  A 0.40 0.40 0.0 0 0 1262.87 1147.84
  Q 1256.49 1110.34 1251.86 1076.51
  Q 1251.84 1076.37 1251.76 1076.37
  Q 1251.67 1076.37 1251.65 1076.51
  Q 1247.26 1110.37 1241.14 1147.92
  A 0.40 0.40 0.0 0 0 1241.53 1148.38
  Q 1246.04 1148.40 1252.01 1148.38
  Z"
/>
<path fill="#14191f" d="
  M 1326.23 1092.67
  A 0.13 0.13 0.0 0 0 1325.97 1092.70
  L 1325.97 1196.86
  A 0.65 0.64 -0.0 0 1 1325.32 1197.50
  L 1305.14 1197.50
  A 0.47 0.47 0.0 0 1 1304.67 1197.03
  L 1304.67 1049.04
  A 0.38 0.38 0.0 0 1 1305.05 1048.66
  L 1333.55 1048.66
  A 0.64 0.63 82.1 0 1 1334.16 1049.13
  L 1358.49 1135.97
  A 0.15 0.15 0.0 0 0 1358.78 1135.93
  L 1358.78 1049.03
  A 0.37 0.36 0.0 0 1 1359.15 1048.67
  L 1379.18 1048.67
  A 0.58 0.57 0.0 0 1 1379.76 1049.24
  L 1379.76 1197.04
  A 0.45 0.45 0.0 0 1 1379.31 1197.49
  L 1356.04 1197.49
  A 0.58 0.58 0.0 0 1 1355.48 1197.07
  L 1326.23 1092.67
  Z"
/>
<path fill="#14191f" d="
  M 751.82 1123.10
  C 761.91 1128.87 765.77 1139.43 766.06 1150.50
  Q 766.19 1155.50 766.26 1183.48
  Q 766.28 1190.84 769.08 1197.07
  A 0.30 0.30 0.0 0 1 768.81 1197.50
  L 745.71 1197.50
  A 1.43 1.42 -7.4 0 1 744.33 1196.44
  Q 742.23 1188.62 742.35 1180.00
  Q 742.56 1165.07 742.03 1149.55
  C 741.71 1140.31 736.20 1135.09 727.35 1134.86
  Q 723.20 1134.75 719.85 1135.02
  A 0.60 0.60 0.0 0 0 719.30 1135.62
  L 719.30 1196.98
  A 0.48 0.47 -90.0 0 1 718.83 1197.46
  L 696.30 1197.46
  A 0.51 0.50 -90.0 0 1 695.80 1196.95
  L 695.80 1049.02
  A 0.35 0.35 0.0 0 1 696.15 1048.67
  Q 713.22 1048.60 735.24 1048.67
  Q 739.04 1048.68 745.01 1050.29
  Q 762.41 1055.00 765.27 1073.75
  Q 767.71 1089.74 764.84 1104.60
  Q 762.71 1115.66 751.81 1122.40
  A 0.41 0.41 0.0 0 0 751.82 1123.10
  Z
  M 719.34 1070.44
  L 719.26 1112.66
  A 0.70 0.70 0.0 0 0 719.96 1113.36
  L 730.24 1113.38
  A 12.69 12.18 -89.9 0 0 742.44 1100.71
  L 742.48 1082.47
  A 12.69 12.18 -89.9 0 0 730.32 1069.76
  L 720.04 1069.74
  A 0.70 0.70 0.0 0 0 719.34 1070.44
  Z"
/>
<path fill="#14191f" d="
  M 800.27 1048.67
  L 832.36 1048.67
  A 0.53 0.53 0.0 0 1 832.89 1049.11
  L 858.15 1196.86
  A 0.53 0.53 0.0 0 1 857.63 1197.48
  L 834.88 1197.48
  A 0.53 0.53 0.0 0 1 834.35 1197.04
  L 829.68 1169.72
  A 0.53 0.53 0.0 0 0 829.15 1169.28
  L 802.17 1169.28
  A 0.53 0.53 0.0 0 0 801.65 1169.72
  L 797.06 1197.07
  A 0.53 0.53 0.0 0 1 796.54 1197.51
  L 775.51 1197.51
  A 0.53 0.53 0.0 0 1 774.98 1196.89
  L 799.75 1049.11
  A 0.53 0.53 0.0 0 1 800.27 1048.67
  Z
  M 815.51 1148.53
  Q 821.56 1148.52 826.13 1148.46
  A 0.41 0.40 -5.1 0 0 826.53 1147.99
  Q 820.10 1109.98 815.44 1075.69
  Q 815.42 1075.55 815.35 1075.55
  Q 815.25 1075.55 815.23 1075.69
  Q 810.74 1110.00 804.50 1148.05
  A 0.41 0.40 4.8 0 0 804.90 1148.52
  Q 809.47 1148.55 815.51 1148.53
  Z"
/>
<path fill="#14191f" d="
  M 990.32 1048.62
  Q 1023.56 1048.65 1026.25 1048.67
  A 0.44 0.44 0.0 0 1 1026.68 1049.11
  L 1026.68 1069.40
  A 0.55 0.55 0.0 0 1 1026.13 1069.95
  L 1002.63 1069.95
  A 0.53 0.53 0.0 0 0 1002.10 1070.48
  L 1002.10 1197.00
  A 0.46 0.45 88.8 0 1 1001.67 1197.46
  Q 1000.49 1197.52 990.19 1197.51
  Q 979.89 1197.50 978.71 1197.44
  A 0.46 0.45 -88.7 0 1 978.28 1196.98
  L 978.50 1070.46
  A 0.53 0.53 0.0 0 0 977.97 1069.93
  L 954.47 1069.89
  A 0.55 0.55 0.0 0 1 953.92 1069.34
  L 953.96 1049.05
  A 0.44 0.44 0.0 0 1 954.39 1048.61
  Q 957.08 1048.59 990.32 1048.62
  Z"
/>
<path fill="#14191f" d="
  M 1535.24 1136.45
  A 0.13 0.12 12.4 0 0 1535.42 1136.34
  L 1535.24 1049.24
  A 0.57 0.57 0.0 0 1 1535.81 1048.67
  L 1556.26 1048.67
  A 0.54 0.54 0.0 0 1 1556.80 1049.21
  L 1556.80 1197.07
  A 0.44 0.44 0.0 0 1 1556.36 1197.51
  L 1532.66 1197.51
  A 0.79 0.78 -7.7 0 1 1531.90 1196.94
  L 1502.78 1092.61
  A 0.04 0.04 0.0 0 0 1502.71 1092.62
  L 1502.71 1197.02
  A 0.49 0.49 0.0 0 1 1502.22 1197.51
  L 1481.90 1197.51
  A 0.69 0.69 0.0 0 1 1481.21 1196.82
  L 1481.21 1049.15
  A 0.49 0.49 0.0 0 1 1481.70 1048.66
  L 1510.35 1048.66
  A 0.67 0.67 0.0 0 1 1510.99 1049.14
  L 1535.10 1136.31
  A 0.21 0.17 12.4 0 0 1535.18 1136.41
  Q 1535.21 1136.44 1535.24 1136.45
  Z"
/>
<rect fill="#ffffff" x="-12.18" y="-54.50" transform="translate(1430.68,1122.93) rotate(-0.1)" width="24.36" height="109.00" rx="11.63"/>
<rect fill="#ffffff" x="243.44" y="1068.51" width="24.58" height="109.06" rx="11.96"/>
<path fill="#ffffff" d="
  M 719.34 1070.44
  A 0.70 0.70 0.0 0 1 720.04 1069.74
  L 730.32 1069.76
  A 12.69 12.18 -89.9 0 1 742.48 1082.47
  L 742.44 1100.71
  A 12.69 12.18 -89.9 0 1 730.24 1113.38
  L 719.96 1113.36
  A 0.70 0.70 0.0 0 1 719.26 1112.66
  L 719.34 1070.44
  Z"
/>
<path fill="#ffffff" d="
  M 330.08 1070.44
  A 0.44 0.44 0.0 0 1 330.52 1070.00
  L 341.71 1070.00
  A 11.62 11.33 90.0 0 1 353.04 1081.62
  L 353.04 1105.80
  A 11.62 11.33 90.0 0 1 341.71 1117.42
  L 330.52 1117.42
  A 0.44 0.44 0.0 0 1 330.08 1116.98
  L 330.08 1070.44
  Z"
/>
<path fill="#ffffff" d="
  M 815.51 1148.53
  Q 809.47 1148.55 804.90 1148.52
  A 0.41 0.40 4.8 0 1 804.50 1148.05
  Q 810.74 1110.00 815.23 1075.69
  Q 815.25 1075.55 815.35 1075.55
  Q 815.42 1075.55 815.44 1075.69
  Q 820.10 1109.98 826.53 1147.99
  A 0.41 0.40 -5.1 0 1 826.13 1148.46
  Q 821.56 1148.52 815.51 1148.53
  Z"
/>
<path fill="#ffffff" d="
  M 1251.76 1076.37
  Q 1251.84 1076.37 1251.86 1076.51
  Q 1256.49 1110.34 1262.87 1147.84
  A 0.40 0.40 0.0 0 1 1262.48 1148.30
  Q 1257.97 1148.36 1252.01 1148.38
  Q 1246.04 1148.40 1241.53 1148.38
  A 0.40 0.40 0.0 0 1 1241.14 1147.92
  Q 1247.26 1110.37 1251.65 1076.51
  Q 1251.67 1076.37 1251.76 1076.37
  Z"
/>
</svg>
